<svg aria-hidden="true" style="position: absolute; width: 0; height: 0; overflow: hidden;" version="1.1" xmlns="http://www.w3.org/2000/svg" xmlns:xlink="http://www.w3.org/1999/xlink">
<defs>
<symbol id="icon-menu" viewBox="0 0 56 32">
<path d="M1.882 0.941h52.706c1.040 0 1.882 0.843 1.882 1.882s-0.843 1.882-1.882 1.882h-52.706c-1.040 0-1.882-0.843-1.882-1.882s0.843-1.882 1.882-1.882z"></path>
<path d="M1.882 14.118h52.706c1.040 0 1.882 0.843 1.882 1.882s-0.843 1.882-1.882 1.882h-52.706c-1.040 0-1.882-0.843-1.882-1.882s0.843-1.882 1.882-1.882z"></path>
<path d="M1.882 27.294h52.706c1.040 0 1.882 0.843 1.882 1.882s-0.843 1.882-1.882 1.882h-52.706c-1.040 0-1.882-0.843-1.882-1.882s0.843-1.882 1.882-1.882z"></path>
</symbol>
<symbol id="icon-heart-white" viewBox="0 0 36 32">
<path fill="#fcfcfc" style="fill: var(--color1, #fcfcfc)" d="M18.133 32l-2.628-2.302c-9.34-8.143-15.505-13.515-15.505-20.107 0-5.372 4.388-9.591 9.973-9.591 3.155 0 6.185 1.412 8.16 3.644 2.021-2.233 4.926-3.633 8.158-3.644h0.002c5.585 0 9.973 4.22 9.973 9.591 0 6.592-6.165 11.962-15.505 20.124l-2.628 2.285z"></path>
</symbol>
<symbol id="icon-cocktail" viewBox="0 0 32 32">
<path fill="#d9d9d9" style="fill: var(--color2, #d9d9d9)" d="M0 0h32v32h-32z"></path>
<path fill="#fcfcfc" style="fill: var(--color1, #fcfcfc)" d="M-13.474-17.684h1077.895v2339.368h-1077.895z"></path>
<path fill="#000" style="fill: var(--color3, #000)" d="M0 0.421h32v31.158h-32z"></path>
<path fill="#000" style="fill: var(--color3, #000)" d="M16 18.526l-8.421-8.421h16.842l-8.421 8.421z"></path>
</symbol>
<symbol id="icon-heart-orange" viewBox="0 0 35 32">
<path fill="#fd5103" style="fill: var(--color4, #fd5103)" d="M17.684 32l-2.565-2.302c-9.107-8.143-15.119-13.512-15.119-20.106 0-5.373 4.28-9.592 9.726-9.592 3.077 0 6.029 1.413 7.958 3.645 1.949-2.223 4.788-3.625 7.954-3.645l0.003-0c5.447 0 9.726 4.221 9.726 9.592 0 6.592-6.013 11.963-15.119 20.125l-2.565 2.284z"></path>
</symbol>
<symbol id="icon-close" viewBox="0 0 32 32">
<path d="M17.254 16l7.369-7.369c0.138-0.156 0.223-0.362 0.223-0.588 0-0.49-0.398-0.888-0.888-0.888-0.226 0-0.433 0.085-0.59 0.224l0.001-0.001-7.369 7.369-7.368-7.378c-0.164-0.176-0.397-0.286-0.655-0.286-0.493 0-0.893 0.4-0.893 0.893 0 0.258 0.11 0.491 0.285 0.654l0.001 0.001 7.378 7.37-7.377 7.369c-0.196 0.164-0.32 0.409-0.32 0.683 0 0.492 0.398 0.89 0.89 0.89 0.274 0 0.519-0.124 0.683-0.319l0.001-0.001 7.376-7.369 7.37 7.37c0.154 0.133 0.357 0.214 0.578 0.214 0.491 0 0.889-0.398 0.889-0.889 0-0.221-0.081-0.424-0.215-0.58l0.001 0.001-7.37-7.37z"></path>
</symbol>
</defs>
</svg>
